SplineFontDB: 3.2
FontName: Nak'Moshra-Archaic
FullName: Nak'Moshra-Archaic
FamilyName: Nak'Moshra
Weight: Regular
Copyright: Copyright (c) 2023, kroonhorstdino
UComments: "2023-6-15: Created with FontForge (http://fontforge.org)"
Version: 001.000
ItalicAngle: 0
UnderlinePosition: -102.4
UnderlineWidth: 51.2
Ascent: 819
Descent: 205
InvalidEm: 0
LayerCount: 2
Layer: 0 0 "Back" 1
Layer: 1 0 "Fore" 0
XUID: [1021 386 -561932103 6261558]
FSType: 0
OS2Version: 0
OS2_WeightWidthSlopeOnly: 0
OS2_UseTypoMetrics: 1
CreationTime: 1686858542
ModificationTime: 1686866688
PfmFamily: 81
TTFWeight: 400
TTFWidth: 5
LineGap: 92
VLineGap: 0
OS2TypoAscent: 0
OS2TypoAOffset: 1
OS2TypoDescent: 0
OS2TypoDOffset: 1
OS2TypoLinegap: 92
OS2WinAscent: 0
OS2WinAOffset: 1
OS2WinDescent: 0
OS2WinDOffset: 1
HheadAscent: 0
HheadAOffset: 1
HheadDescent: 0
HheadDOffset: 1
OS2Vendor: 'PfEd'
MarkAttachClasses: 1
DEI: 91125
LangName: 1033
Encoding: ISO8859-1
UnicodeInterp: none
NameList: AGL For New Fonts
DisplaySize: -128
AntiAlias: 1
FitToEm: 0
WinInfo: 80 10 6
BeginPrivate: 0
EndPrivate
BeginChars: 256 25

StartChar: a
Encoding: 97 97 0
Width: 1024
VWidth: 879
Flags: HW
HStem: 654 20G<177 178> 715 0
LayerCount: 2
Fore
SplineSet
604 -52 m 0
 565 -22 517 19 498 42 c 0
 479 65 443 104 419 131 c 2
 376 179 l 1
 384 188 l 2
 394 200 402 200 416 187 c 0
 422 181 463 153 507 123 c 2
 587 68 l 1
 607 38 l 2
 631 3 679 -91 679 -101 c 0
 679 -102 679 -102 679 -102 c 0
 674 -102 641 -81 604 -52 c 0
108 -57 m 2
 108 -30 177 70 223 108 c 0
 327 194 344 205 357 205 c 2
 372 205 l 1
 355 180 l 2
 347 166 319 123 291 84 c 2
 241 13 l 1
 193 -17 l 2
 166 -33 136 -52 126 -56 c 2
 108 -65 l 1
 108 -57 l 2
341 220 m 0
 335 225 314 276 294 333 c 0
 274 390 238 490 215 555 c 0
 193 617 177 671 177 675 c 0
 179 675 201 634 228 582 c 0
 313 415 357 330 362 325 c 0
 362 325 363 325 364 325 c 0
 369 325 395 354 426 392 c 0
 499 483 571 561 617 599 c 2
 653 629 l 1
 635 633 l 2
 625 635 544 647 455 660 c 0
 261 689 154 709 148 715 c 0
 148 716 155 715 164 715 c 0
 175 715 191 715 208 715 c 0
 243 715 386 700 525 700 c 0
 664 700 785 687 793 684 c 0
 807 679 813 666 813 654 c 0
 813 636 801 615 777 603 c 0
 686 557 606 483 468 319 c 0
 398 237 374 212 358 212 c 0
 352 212 347 215 341 220 c 0
EndSplineSet
EndChar

StartChar: b
Encoding: 98 98 1
Width: 1024
Flags: HW
HStem: 494 132<485 559> 582 20G<732 735>
VStem: 406 47<572 710> 416 147<196 316> 487 76<2 194> 487 63<-130 191> 497 76<431 494>
LayerCount: 2
Fore
SplineSet
504 -173 m 0x44
 499 -151 487 -60 487 30 c 1
 487 194 l 1
 465 194 l 2
 461 193 456 193 453 193 c 0x68
 422 193 416 214 416 314 c 0x50
 416 368 414 416 411 419 c 0
 410 419 l 0
 404 419 377 400 348 377 c 0
 319 353 294 337 290 337 c 0
 289 337 289 337 289 337 c 0
 289 342 313 376 347 416 c 2
 406 492 l 1
 406 658 l 1
 406 720 404 765 404 791 c 0
 404 810 406 819 407 819 c 0
 408 819 408 819 408 819 c 0
 414 813 453 590 453 561 c 0
 453 547 464 553 476 573 c 0
 498 609 518 626 541 626 c 0
 577 626 578 607 578 526 c 0
 578 522 578 518 578 513 c 0
 578 472 572 438 572 432 c 0
 572 431 572 431 572 431 c 0xa2
 574 431 611 470 653 517 c 0
 702 571 729 602 734 602 c 0
 735 602 735 601 735 600 c 0
 735 592 703 538 635 430 c 2
 563 316 l 1
 563 244 l 1x50
 563 204 551 140 551 102 c 0
 551 -13 525 -190 519 -202 c 0
 518 -204 517 -205 516 -205 c 0
 513 -205 509 -195 504 -173 c 0x44
497 415 m 1x82
 497 471 494 494 486 494 c 0
 483 494 480 490 475 484 c 0
 471 480 470 474 470 462 c 0
 470 450 471 432 475 404 c 0
 480 366 487 335 490 335 c 0
 493 335 497 371 497 415 c 1x82
EndSplineSet
EndChar

StartChar: c
Encoding: 99 99 2
Width: 1024
VWidth: 867
Flags: HWO
HStem: 539 20G<431 469>
LayerCount: 2
Fore
SplineSet
779 -60 m 0
 718 -28 670 6 516 130 c 0
 445 186 385 230 381 228 c 0
 377 226 342 188 303 143 c 0
 264 98 230 64 228 66 c 0
 228 66 l 0
 228 75 341 299 354 315 c 0
 358 320 372 324 383 324 c 2
 403 324 l 1
 430 301 l 2
 444 289 520 224 597 156 c 0
 740 31 847 -69 847 -79 c 0
 847 -83 845 -84 840 -84 c 0
 830 -84 810 -76 779 -60 c 0
828 92 m 0
 809 104 713 195 616 294 c 2
 439 473 l 1
 424 463 l 2
 416 457 344 392 266 318 c 0
 188 244 108 172 90 156 c 0
 68 137 54 127 51 127 c 0
 51 127 l 0
 51 128 52 131 55 135 c 0
 84 173 163 270 218 335 c 0
 255 378 308 453 348 492 c 2
 408 550 l 1
 416 555 419 557 442 559 c 1
 469 556 l 1
 494 532 l 2
 557 472 813 137 846 103 c 0
 883 64 877 61 828 92 c 0
EndSplineSet
EndChar

StartChar: d
Encoding: 100 100 3
Width: 1024
VWidth: 880
Flags: HW
HStem: 648 20G<253 256 400 404>
VStem: 392 16<590 717> 404 9<335 505> 422 9<-35 97> 431 4<-93 -84>
LayerCount: 2
Fore
SplineSet
86 -98 m 0xb0
 86 -86 187 9 309 108 c 0
 396 179 414 194 414 209 c 0
 414 210 414 212 414 213 c 0
 412 223 404 290 404 361 c 0xb0
 404 554 402 539 334 594 c 0
 280 638 252 662 252 667 c 0
 252 668 252 668 253 668 c 0
 257 668 275 659 305 640 c 0
 343 616 380 594 385 591 c 0
 386 590 387 590 388 590 c 0
 392 590 392 599 392 623 c 0
 392 630 392 639 392 649 c 1
 392 696 392 715 399 717 c 0
 400 717 l 0
 406 717 409 699 409 650 c 2
 409 580 l 1
 431 562 l 2
 464 537 717 375 769 345 c 0
 807 323 826 306 826 288 c 0
 826 279 821 269 811 258 c 0
 801 247 795 246 772 246 c 0
 763 246 751 246 735 246 c 0
 718 246 706 246 695 246 c 0
 671 246 658 244 628 231 c 0
 601 220 546 193 505 170 c 2
 431 129 l 1xc8
 431 37 l 1
 422 -55 l 1
 422 28 l 1
 422 74 416 113 414 115 c 0
 412 117 401 111 392 104 c 0
 383 97 313 50 236 0 c 0
 159 -50 94 -95 91 -99 c 0
 88 -104 86 -103 86 -98 c 0xb0
490 250 m 0
 524 275 571 305 597 317 c 0
 623 329 643 340 643 341 c 0
 643 345 427 520 422 520 c 0
 420 520 414 495 414 463 c 0
 414 391 425 205 428 205 c 0
 429 205 456 225 490 250 c 0
431 -84 m 1x88
 431 -76 433 -74 435 -80 c 0
 437 -85 436 -91 434 -93 c 0
 432 -95 431 -92 431 -84 c 1x88
EndSplineSet
EndChar

StartChar: e
Encoding: 101 101 4
Width: 1024
VWidth: 901
Flags: HW
HStem: 408 213G<445 452 623 638>
LayerCount: 2
Fore
SplineSet
254 20 m 1
 232 33 l 1
 173 142 l 2
 105 265 51 371 51 381 c 0
 51 398 69 378 159 259 c 0
 212 188 263 124 272 116 c 2
 289 100 l 1
 317 163 l 2
 402 344 436 411 445 419 c 2
 457 428 l 1
 450 399 l 2
 447 384 423 295 396 202 c 2
 348 33 l 1
 334 24 l 2
 326 19 309 12 297 10 c 2
 274 7 l 1
 254 20 l 1
840 156 m 0
 818 179 716 315 678 370 c 0
 666 387 647 420 637 444 c 0
 627 468 616 487 614 487 c 0
 612 487 596 464 577 435 c 0
 515 342 452 256 447 256 c 0
 446 256 l 0
 446 257 l 0
 446 266 474 330 536 467 c 0
 566 532 591 591 594 599 c 0
 599 613 615 620 631 620 c 0
 647 620 662 614 669 600 c 0
 673 591 684 562 693 534 c 0
 711 478 770 344 828 224 c 0
 850 180 868 142 869 139 c 0
 870 137 870 137 870 136 c 0
 870 135 869 134 868 134 c 0
 864 134 853 143 840 156 c 0
EndSplineSet
EndChar

StartChar: f
Encoding: 102 102 5
Width: 1024
VWidth: 880
Flags: HW
HStem: 511 10<745 778> 521 6<762 790> 696 20G<418 444>
VStem: 414 31<57 213 323 427 547 629> 418 27<-102 106 563 717>
LayerCount: 2
Fore
SplineSet
422 -87 m 0xb0
 422 -65 415 203 414 211 c 0
 414 212 409 213 401 213 c 0
 384 213 353 211 319 211 c 0
 307 211 297 211 288 211 c 0
 245 211 228 211 228 218 c 0
 228 222 235 230 247 240 c 0
 282 271 313 287 361 299 c 2
 411 311 l 1
 414 369 l 1
 414 427 l 1
 393 432 l 2
 382 435 321 438 258 438 c 0
 195 438 133 442 121 446 c 2
 98 453 l 1
 125 464 l 2
 139 470 210 491 281 508 c 2
 414 541 l 1xb0
 418 629 l 1
 418 717 l 1
 431 717 l 1
 444 717 l 1
 444 632 l 1xa8
 444 547 l 1
 482 541 l 2
 500 538 557 535 608 535 c 0
 659 535 720 530 745 527 c 2
 790 521 l 1x70
 750 511 l 2
 728 505 653 485 583 469 c 0
 513 453 453 436 450 433 c 0
 447 430 444 406 444 377 c 2
 444 323 l 1
 475 323 l 2
 492 323 538 329 577 336 c 0
 616 343 687 349 735 349 c 2
 823 349 l 1
 808 332 l 2
 800 323 765 300 731 283 c 2
 670 251 l 1
 565 238 l 2
 508 231 457 223 451 221 c 2
 439 217 l 1
 439 57 l 2
 439 -43 436 -102 431 -102 c 0
 426 -102 422 -95 422 -87 c 0xb0
EndSplineSet
EndChar

StartChar: g
Encoding: 103 103 6
Width: 1024
VWidth: 841
Flags: HW
HStem: 545 9G<138 142 295 325>
VStem: 119 24<319 510> 136 6<524 565> 761 17<132 183>
LayerCount: 2
Fore
SplineSet
93 27 m 1xd0
 77 48 l 1
 81 70 l 2
 86 96 119 230 119 398 c 0xd0
 119 460 133 525 136 539 c 2
 142 565 l 1xb0
 142 509 l 1
 142 465 167 137 167 98 c 0
 167 93 181 87 198 85 c 0
 215 83 267 77 314 71 c 0
 510 45 672 21 675 18 c 0
 675 18 l 0
 675 16 580 15 461 15 c 0
 341 15 213 10 176 10 c 1
 110 10 l 1
 93 27 l 1xd0
761 151 m 0
 755 165 741 234 731 307 c 0
 721 380 711 447 709 455 c 2
 706 471 l 1
 681 475 l 2
 414 522 292 548 292 553 c 0
 292 553 293 554 296 554 c 0
 353 554 754 551 765 545 c 0
 772 541 782 531 786 524 c 2
 794 511 l 1
 794 419 l 1
 794 369 778 281 778 226 c 0
 778 171 776 126 774 126 c 0
 772 126 767 137 761 151 c 0
EndSplineSet
EndChar

StartChar: h
Encoding: 104 104 7
Width: 1024
Flags: HW
HStem: 561 33<0 230> 569 34<290 396> 573 69<575 947> 578 45<428 532>
VStem: 226 63<603 801> 244 46<182 561> 535 26<300 573 623 766> 550 27<-16 236>
LayerCount: 2
Fore
SplineSet
572 -169 m 0x21
 562 -152 550 -41 550 181 c 0x21
 550 307 535 449 535 495 c 1
 532 578 l 1
 460 578 l 1x12
 420 578 366 569 339 569 c 2
 290 569 l 1
 290 249 l 1
 290 -71 l 1
 291 -78 l 2
 284 -82 275 -83 272 -80 c 0
 267 -75 244 89 244 395 c 0x46
 244 482 234 558 232 561 c 0
 231 562 225 563 214 563 c 0
 192 563 153 561 109 561 c 0
 36 561 0 569 0 577 c 0
 0 585 41 594 120 594 c 1
 230 594 l 1
 226 702 l 1
 226 811 l 1x88
 244 817 l 2x84
 247 818 250 819 254 819 c 0
 262 819 269 816 275 812 c 2
 290 801 l 1
 290 698 l 1
 290 603 l 1
 351 603 l 1x48
 473 623 l 1
 535 623 l 1
 535 698 l 1
 535 774 l 1
 547 770 l 1
 560 766 l 1
 560 692 l 1
 560 617 l 1x1a
 589 624 l 2
 601 627 687 642 779 642 c 1
 947 642 l 1
 982 618 l 2
 1001 605 1019 589 1021 584 c 2
 1024 573 l 1
 795 573 l 1
 565 573 l 1
 565 419 l 1
 565 330 574 162 574 44 c 0
 574 -88 577 -144 577 -164 c 0
 577 -171 577 -173 576 -173 c 0
 575 -173 574 -172 572 -169 c 0x21
EndSplineSet
EndChar

StartChar: i
Encoding: 105 105 8
Width: 1024
VWidth: 880
Flags: HW
HStem: 345 20G<154 160 391 426>
VStem: 146 20<341 366> 382 74<344 571>
LayerCount: 2
Fore
SplineSet
258 124 m 0
 197 248 146 353 146 357 c 0
 146 361 151 366 157 366 c 0
 163 366 167 364 167 361 c 0
 167 356 368 -82 377 -97 c 0
 379 -100 380 -102 377 -102 c 0
 374 -102 319 0 258 124 c 0
377 -48 m 1
 369 -22 367 230 367 341 c 0
 367 401 382 503 382 568 c 1
 382 685 l 1
 391 701 l 1
 401 715 l 1
 426 713 l 1
 451 713 l 1
 520 609 l 2
 655 409 742 293 759 285 c 2
 775 276 l 1
 760 276 l 1
 743 276 l 1
 698 318 l 2
 673 342 611 410 560 467 c 0
 509 524 465 571 462 571 c 0
 459 571 456 567 456 561 c 0
 456 523 433 258 424 189 c 0
 412 94 387 -56 384 -59 c 0
 383 -60 379 -55 377 -48 c 1
EndSplineSet
EndChar

StartChar: k
Encoding: 107 107 9
Width: 1024
VWidth: 880
Flags: HW
HStem: 544 20G<446 458 791 796>
VStem: 434 24<390 564>
LayerCount: 2
Fore
SplineSet
130 -95 m 1
 123 -87 l 1
 195 0 l 2
 234 49 285 116 309 146 c 0
 354 203 382 233 391 233 c 0
 392 233 392 232 393 231 c 0
 394 230 394 229 394 227 c 0
 394 209 358 159 265 48 c 0
 205 -24 150 -87 145 -92 c 2
 136 -102 l 1
 130 -95 l 1
416 11 m 0
 416 11 415 12 415 14 c 0
 415 38 434 205 434 444 c 0
 434 499 439 549 439 554 c 0
 439 559 444 564 449 564 c 2
 458 564 l 1
 458 492 l 1
 458 452 439 362 439 291 c 0
 439 49 428 7 420 7 c 0
 418 7 417 9 416 11 c 0
488 341 m 0
 488 361 539 430 640 548 c 0
 747 672 788 717 796 717 c 0
 797 717 l 0
 797 716 797 715 797 714 c 0
 797 703 782 668 767 647 c 0
 732 598 561 386 544 371 c 0
 518 348 501 336 493 336 c 0
 490 336 488 338 488 341 c 0
EndSplineSet
EndChar

StartChar: l
Encoding: 108 108 10
Width: 1024
Flags: HW
HStem: 338 39<207 688> 345 20<52 319 680 934>
VStem: 934 39<293 345>
LayerCount: 2
Fore
SplineSet
934 285 m 1x60
 934 345 l 1
 749 345 l 2x60
 623 345 458 338 433 338 c 0xa0
 408 338 271 345 204 345 c 1
 51 345 l 1x60
 51 361 l 1
 51 373 l 1
 78 373 l 2
 92 373 106 373 109 373 c 0
 112 372 119 372 130 372 c 0
 182 372 317 377 484 377 c 0xa0
 690 377 864 366 870 366 c 2
 973 366 l 1
 973 331 l 1
 973 312 946 281 937 281 c 0
 935 281 934 282 934 285 c 1x60
EndSplineSet
EndChar

StartChar: m
Encoding: 109 109 11
Width: 1024
VWidth: 819
Flags: HW
HStem: 368 194G<346 356 439 448>
VStem: 461 74<85 373 388 725> 695 74<197 468>
LayerCount: 2
Fore
SplineSet
684 10 m 1
 671 30 l 1
 679 69 l 2
 694 137 695 281 695 440 c 1
 695 594 l 1
 719 663 l 2
 732 701 747 743 750 756 c 2
 755 780 l 1
 760 768 l 2
 762 761 769 753 775 748 c 2
 786 739 l 1
 786 662 l 1
 796 584 l 1
 781 492 l 2
 770 422 769 347 769 225 c 0
 769 190 769 152 769 108 c 1
 769 11 l 1
 757 0 l 2
 749 -6 732 -10 720 -10 c 2
 698 -10 l 1
 684 10 l 1
450 38 m 2
 434 54 l 1
 443 122 l 2
 448 159 464 232 464 282 c 1
 464 373 l 1
 335 273 l 2
 264 218 194 165 182 155 c 0
 170 145 157 135 153 135 c 0
 148 135 145 136 145 139 c 0
 145 149 183 184 305 286 c 0
 321 299 354 326 379 348 c 0
 414 378 430 389 447 389 c 0
 449 389 452 388 455 388 c 0
 455 388 l 0
 458 388 461 463 461 556 c 2
 461 725 l 1
 471 734 l 2
 476 739 487 744 494 744 c 0
 501 744 512 759 519 776 c 0
 526 793 538 809 544 809 c 2
 554 809 l 1
 544 799 l 1
 535 790 l 1
 535 419 l 1
 535 47 l 1
 521 35 l 2
 513 27 501 22 488 22 c 0
 474 22 459 28 450 38 c 2
24 240 m 0
 24 244 47 284 76 328 c 2
 129 409 l 1
 216 478 l 2
 264 517 315 553 326 558 c 0
 333 561 342 563 350 563 c 0
 362 563 371 560 371 556 c 0
 371 555 371 553 368 551 c 0
 364 548 325 498 283 442 c 2
 206 340 l 1
 126 287 l 2
 71 250 42 233 30 233 c 0
 26 233 24 236 24 240 c 0
EndSplineSet
EndChar

StartChar: n
Encoding: 110 110 12
Width: 920
VWidth: 883
Flags: HW
HStem: 319 36<76 419> 326 22<512 781> 333 4<759 791> 337 2<743 790> 547 20G<285 303>
VStem: 820 35<335 575> 849 16<11 134>
LayerCount: 2
Fore
SplineSet
849 33 m 0x0a
 845 58 820 451 820 531 c 1
 820 575 l 1x0c
 831 588 l 2
 838 595 847 599 849 597 c 0x0a
 851 595 855 518 855 427 c 0x0c
 855 336 865 204 865 134 c 1
 865 8 l 1
 861 8 l 2
 856 8 851 20 849 33 c 0x0a
632 71 m 0
 627 77 583 135 535 201 c 2
 447 319 l 1
 282 319 l 1
 191 319 105 307 94 305 c 0
 56 298 34 338 67 355 c 2
 82 355 l 1
 249 355 l 1x88
 341 355 417 348 419 350 c 0
 421 352 392 396 354 447 c 0
 288 537 273 567 296 567 c 0
 309 567 339 531 417 428 c 2
 476 347 l 1
 589 347 l 1x48
 650 347 705 344 709 343 c 0
 713 342 744 342 758 339 c 1x18
 775 339 779 337 791 337 c 1
 738 333 l 2x28
 709 331 646 326 602 326 c 0x48
 558 326 517 320 512 317 c 2
 503 311 l 1
 577 215 l 2
 618 162 652 117 653 115 c 0
 654 113 662 116 669 122 c 2
 681 132 l 1
 675 102 l 2
 672 86 668 70 666 67 c 0
 661 58 643 60 632 71 c 0
EndSplineSet
EndChar

StartChar: o
Encoding: 111 111 13
Width: 716
VWidth: 716
Flags: HW
VStem: 0 213<201 283>
LayerCount: 2
Fore
SplineSet
559 161 m 0
 524 165 507 180 501 212 c 0
 498 225 485 249 472 262 c 2
 447 288 l 1
 453 304 l 2
 456 313 465 321 473 321 c 0
 481 321 497 325 507 330 c 2
 526 338 l 1
 591 329 l 1
 656 319 l 1
 686 300 l 1
 717 281 l 1
 717 257 l 1
 717 233 l 1
 691 219 l 2
 678 212 658 197 648 188 c 0
 628 169 602 155 593 157 c 0
 590 158 574 159 559 161 c 0
15 203 m 2
 7 211 0 223 0 230 c 0
 0 248 55 345 73 361 c 0
 98 381 113 379 165 340 c 2
 213 305 l 1
 213 263 l 2
 213 240 210 217 206 211 c 0
 198 198 144 186 81 186 c 2
 32 186 l 1
 15 203 l 2
EndSplineSet
EndChar

StartChar: p
Encoding: 112 112 14
Width: 921
VWidth: 900
Flags: HW
HStem: 214 5<583 614> 552 16<72 299> 569 13<392 436> 586 11<635 716> 606 20G<374 382>
VStem: 368 48<66 500> 374 4<610 627> 378 4<609 627>
LayerCount: 2
Fore
SplineSet
377 -18 m 1xfc
 375 -12 370 126 368 284 c 0xfc
 366 442 352 561 350 563 c 0
 347 566 363 564 210 552 c 0
 179 550 51 551 51 555 c 0
 51 559 102 565 164 568 c 0
 226 571 298 576 324 579 c 2
 371 584 l 1
 374 609 l 1
 378 627 l 1xfa
 382 610 l 1xf9
 383 583 l 1
 436 589 l 2
 442 590 546 597 614 597 c 2
 738 597 l 1
 678 586 l 2
 640 580 574 574 516 571 c 0
 480 569 611 581 392 569 c 1
 392 534 l 2
 392 514 404 403 410 285 c 0
 416 167 419 49 416 24 c 2
 410 -24 l 1
 395 -36 l 2
 389 -41 379 -24 377 -18 c 1xfc
697 197 m 2
 583 214 l 1
 603 219 l 2
 614 222 672 226 731 229 c 2
 840 234 l 1
 855 223 l 1
 870 212 l 1
 861 197 l 2
 849 177 831 178 697 197 c 2
EndSplineSet
EndChar

StartChar: q
Encoding: 113 113 15
Width: 921
VWidth: 920
Flags: HW
HStem: 67 6<528 539> 247 88<396 625> 257 54<355 510> 436 20G<175 190>
VStem: 175 15<430 443>
LayerCount: 2
Fore
SplineSet
80 14 m 2x98
 73 18 63 29 59 37 c 2
 51 51 l 1
 81 146 l 2
 97 198 123 285 138 338 c 0
 153 391 170 439 175 445 c 2
 185 457 l 1
 190 443 l 2
 193 436 185 356 173 265 c 0
 161 174 152 98 153 97 c 0
 155 95 437 77 527 73 c 0
 544 72 555 70 550 67 c 0
 538 61 379 40 267 30 c 0
 219 26 163 18 141 14 c 0
 94 5 96 5 80 14 c 2x98
864 56 m 0
 864 60 856 160 846 279 c 0
 829 481 829 515 847 504 c 0
 855 499 876 61 869 54 c 0
 866 51 864 52 864 56 c 0
465 257 m 0xb8
 353 275 346 279 344 292 c 0
 343 299 348 307 355 311 c 0xb8
 371 319 488 335 538 335 c 0
 589 335 721 277 701 264 c 0
 691 258 591 246 555 247 c 0xd8
 539 247 498 252 465 257 c 0xb8
EndSplineSet
EndChar

StartChar: r
Encoding: 114 114 16
Width: 920
VWidth: 931
Flags: HW
HStem: 0 35<270 305> 172 23<291 440 464 851> 358 20G<452 455>
VStem: 440 22<127 172 195 255>
LayerCount: 2
Fore
SplineSet
77 13 m 1
 66 29 65 45 75 61 c 2
 82 74 l 1
 65 166 l 2
 39 301 48 353 101 385 c 0
 137 405 167 409 259 404 c 2
 338 399 l 1
 332 393 l 2
 329 390 300 383 267 378 c 0
 177 364 156 357 139 337 c 0
 120 313 119 310 142 288 c 0
 165 266 165 248 145 232 c 2
 130 220 l 1
 142 164 l 2
 149 132 156 98 156 88 c 2
 156 70 l 1
 170 67 l 2
 193 62 387 36 416 35 c 2
 440 34 l 1
 440 103 l 1
 440 172 l 1
 366 172 l 1
 291 172 l 1
 289 179 l 2
 286 188 329 195 394 195 c 2
 443 195 l 1
 444 249 l 2
 444 279 447 322 450 342 c 2
 455 379 l 1
 456 348 l 2
 457 331 458 289 460 255 c 2
 464 195 l 1
 659 196 l 2
 767 197 858 193 862 191 c 0
 866 189 869 180 869 173 c 0
 869 165 868 163 865 167 c 2
 860 174 l 1
 785 176 l 2
 744 177 655 178 586 177 c 2
 462 175 l 1
 466 127 l 2
 468 100 472 63 475 44 c 0
 478 25 478 8 477 7 c 0
 476 6 469 8 460 14 c 2
 443 26 l 1
 430 18 l 2
 420 13 215 1 103 0 c 0
 93 0 83 5 77 13 c 1
EndSplineSet
EndChar

StartChar: s
Encoding: 115 115 17
Width: 971
VWidth: 963
Flags: HW
HStem: 409 22G<437 501>
LayerCount: 2
Fore
SplineSet
471 -37 m 0
 463 -23 407 102 348 240 c 0
 289 378 233 502 225 515 c 0
 208 542 190 590 190 614 c 0
 190 634 208 633 219 611 c 0
 289 480 476 136 486 120 c 2
 500 98 l 1
 515 129 l 2
 523 146 571 253 620 366 c 0
 705 563 774 715 780 715 c 0
 783 715 729 543 678 392 c 0
 658 332 618 211 589 122 c 0
 560 33 532 -45 526 -51 c 0
 508 -70 486 -65 471 -37 c 0
437 429 m 2
 421 452 424 467 452 517 c 0
 463 537 469 558 467 567 c 0
 462 586 480 626 498 634 c 0
 518 643 541 616 552 578 c 2
 556 564 l 1
 563 542 l 1
 565 536 l 1
 565 529 l 1
 565 526 l 1
 569 495 l 1
 574 463 l 1
 561 442 l 1
 549 422 l 1
 501 415 l 1
 452 409 l 1
 437 429 l 2
EndSplineSet
EndChar

StartChar: t
Encoding: 116 116 18
Width: 959
VWidth: 944
Flags: HW
HStem: -38 4<170 173> 224 27<120 184> 244 2<46 47>
VStem: 49 52<282 436> 84 36<111 224>
LayerCount: 2
Fore
SplineSet
139 -32 m 2xc8
 127 -18 84 179 84 220 c 2
 84 232 l 1xc8
 67 237 l 2
 58 239 47 242 46 244 c 0
 45 246 50 247 57 246 c 0
 64 245 72 245 74 248 c 0
 76 251 71 289 63 331 c 0
 55 373 49 413 49 420 c 0
 49 436 65 445 87 439 c 2
 103 434 l 1
 101 401 l 2xb0
 100 383 102 343 106 310 c 2
 114 251 l 1
 165 247 l 2
 214 243 470 246 744 253 c 0
 814 255 869 255 867 253 c 0
 861 247 683 205 618 195 c 0
 510 178 349 185 170 218 c 0
 143 223 122 226 120 224 c 0
 117 221 145 16 152 -11 c 2
 156 -28 l 1
 170 -31 l 1
 183 -34 l 1
 173 -38 l 2
 157 -44 148 -43 139 -32 c 2xc8
897 105 m 0
 893 142 885 233 877 307 c 0
 862 451 858 489 866 481 c 0
 870 476 913 84 913 51 c 0
 913 44 911 38 908 38 c 0
 905 38 901 68 897 105 c 0
EndSplineSet
EndChar

StartChar: u
Encoding: 117 117 19
Width: 972
VWidth: 955
Flags: HW
HStem: 389 20G<237 331>
LayerCount: 2
Fore
SplineSet
693 -35 m 2
 679 -18 l 1
 684 74 l 2
 686 125 691 233 693 315 c 0
 701 567 709 629 731 579 c 0
 738 563 755 375 780 44 c 2
 785 -28 l 1
 769 -39 l 2
 746 -55 710 -53 693 -35 c 2
317 134 m 0
 283 152 219 210 202 237 c 2
 187 258 l 1
 208 316 l 2
 219 349 232 384 237 393 c 2
 246 410 l 1
 295 410 l 2
 368 410 453 388 507 357 c 0
 566 323 587 305 587 281 c 0
 587 258 491 158 449 136 c 0
 411 117 352 116 317 134 c 0
EndSplineSet
EndChar

StartChar: v
Encoding: 118 118 20
Width: 1024
Flags: HW
HStem: 344 24<640 809> 423 233G<29 114 934 969>
VStem: 940 22<24 225>
LayerCount: 2
Fore
SplineSet
952 -34 m 0
 948 -28 943 85 940 216 c 0
 937 347 932 498 930 552 c 0
 928 606 929 657 934 664 c 2
 942 677 l 1
 969 670 l 1
 995 664 l 1
 989 642 l 2
 984 623 968 288 962 43 c 0
 961 -5 956 -40 952 -34 c 0
44 352 m 0
 35 371 29 407 29 413 c 2
 29 423 l 1
 114 417 l 2
 161 413 287 406 389 396 c 0
 491 386 699 379 773 368 c 0
 875 352 800 344 797 344 c 2
 330 354 l 1
 80 376 l 1
 108 309 l 2
 121 277 61 315 44 352 c 0
EndSplineSet
EndChar

StartChar: w
Encoding: 119 119 21
Width: 1024
Flags: HW
HStem: 128 12<62 129> 132 63<385 624> 156 3<19 69> 159 6<19 51> 296 24<274 321> 304 60<566 861> 461 20G<977 984>
VStem: 977 4<465 481> 981 3<466 481>
LayerCount: 2
Fore
SplineSet
61 134 m 2x82
 63 137 75 140 87 140 c 0
 99 140 117 143 125 145 c 2
 140 150 l 1
 112 151 l 2
 96 152 68 154 51 156 c 2
 19 159 l 1xa2
 101 165 l 2x12
 146 169 248 175 328 179 c 0
 408 183 503 191 540 194 c 0
 577 197 613 198 620 196 c 0
 642 191 643 144 623 138 c 0
 618 137 489 134 336 132 c 2x42
 57 128 l 1
 61 134 l 2x82
948 141 m 2
 939 152 l 1
 945 198 l 2
 948 224 956 291 962 348 c 0
 968 405 975 458 977 466 c 2
 981 481 l 1x03
 984 457 l 2x0280
 986 444 989 412 990 386 c 0
 992 360 995 296 998 245 c 2
 1005 152 l 1
 995 141 l 2
 983 128 960 128 948 141 c 2
281 296 m 2x0a
 275 297 269 301 269 303 c 0
 269 309 283 312 357 319 c 0x0a
 426 326 433 335 373 335 c 0
 353 335 338 337 338 340 c 0
 338 343 340 345 344 345 c 0
 352 345 682 360 790 365 c 2x06
 870 368 l 1
 878 358 l 2
 882 353 885 342 885 334 c 2
 885 319 l 1x0a
 872 311 l 1
 861 304 l 1x06
 606 301 l 2
 466 299 338 297 322 296 c 0
 306 295 287 295 281 296 c 2x0a
EndSplineSet
EndChar

StartChar: x
Encoding: 120 120 22
Width: 1024
Flags: HW
HStem: 262 88<515 841> 276 60<342 451> 295 28<0 120> 327 17<969 1023> 486 20G<331 335 476 481>
VStem: 301 32<35 276> 301 23<35 219> 318 24<338 501> 452 63<30 262> 465 49<351 511>
LayerCount: 2
Fore
SplineSet
445 17 m 2x8880
 433 30 l 1
 436 55 l 2
 442 99 452 219 452 248 c 0
 452 251 452 253 452 254 c 2
 452 265 l 1
 397 272 l 2
 378 275 360 276 350 276 c 0
 345 276 342 277 341 276 c 0
 339 274 333 220 333 155 c 0x4c80
 333 90 327 36 324 33 c 0x4a
 321 30 313 29 308 31 c 2
 301 35 l 1
 301 111 l 1
 301 152 312 206 312 233 c 1
 312 281 l 1
 298 281 l 2
 280 281 158 295 114 295 c 0
 41 295 98 295 51 295 c 0
 0 295 0 304 0 307 c 0
 0 321 46 323 60 323 c 0x2c
 72 323 98 329 120 336 c 2
 159 348 l 1
 209 348 l 2
 237 348 271 346 285 343 c 2
 311 338 l 1
 314 350 l 2x8c
 315 357 318 392 318 428 c 0
 318 464 324 497 326 501 c 0
 328 505 330 507 332 507 c 0
 339 507 342 478 342 418 c 2
 342 337 l 1
 397 337 l 1x49
 428 337 454 341 455 342 c 0
 456 343 465 381 465 425 c 0
 465 503 471 517 480 517 c 0
 482 517 484 517 486 516 c 2
 497 512 l 1
 501 511 l 2
 505 509 503 507 504 505 c 0
 512 479 514 490 514 424 c 2
 514 385 l 1
 514 350 l 1
 557 350 l 1x8940
 658 350 768 354 855 354 c 0
 906 354 963 344 985 344 c 0
 1009 344 1024 338 1024 334 c 2
 1024 327 l 1
 996 327 l 1x1940
 969 331 l 1
 969 313 l 2
 969 303 963 291 957 286 c 2
 947 276 l 1
 800 276 l 1x4940
 719 276 622 262 584 262 c 2
 515 262 l 1
 515 142 l 1
 515 22 l 1
 499 12 l 2
 492 7 483 4 475 4 c 0
 465 4 453 9 445 17 c 2x8880
EndSplineSet
EndChar

StartChar: y
Encoding: 121 121 23
Width: 900
VWidth: 886
Flags: HW
HStem: 701 20G<424 460>
LayerCount: 2
Fore
SplineSet
377 -98 m 1
 370 -93 344 -54 318 -11 c 0
 233 132 178 218 167 227 c 0
 161 232 154 249 151 263 c 2
 145 289 l 1
 156 286 l 2
 165 283 315 109 345 67 c 0
 351 59 358 54 360 56 c 0
 362 58 368 105 372 157 c 0
 376 209 386 351 395 473 c 2
 411 694 l 1
 424 708 l 1
 436 722 l 1
 460 720 l 1
 483 717 l 1
 541 613 l 2
 658 400 718 298 736 289 c 2
 755 280 l 1
 738 280 l 1
 722 280 l 1
 678 328 l 2
 653 355 603 417 566 467 c 0
 529 517 497 558 494 558 c 0
 491 558 487 549 487 538 c 0
 487 527 477 381 465 217 c 2
 441 -81 l 1
 425 -94 l 2
 406 -110 394 -111 377 -98 c 1
EndSplineSet
EndChar

StartChar: z
Encoding: 122 122 24
Width: 1024
Flags: HW
HStem: 119 59<723 962> 121 45<501 878> 126 5<424 461> 347 10<76 315 364 656> 480 44G<447 450 464 466 491 492 513 514 523 525>
LayerCount: 2
Fore
SplineSet
66 -10 m 1x18
 73 3 l 1
 67 9 l 2
 54 22 63 40 119 108 c 0
 151 146 208 215 246 262 c 2
 315 347 l 1
 297 347 l 2
 287 347 228 349 167 350 c 0
 106 351 53 352 51 354 c 0
 49 356 109 357 185 357 c 2
 323 357 l 1
 410 464 l 2
 458 522 498 567 498 564 c 0
 498 561 488 543 476 525 c 0
 452 488 450 482 464 493 c 2
 473 501 l 1
 466 490 l 2
 462 485 456 483 454 484 c 0
 449 487 435 466 437 459 c 0
 438 457 421 434 401 408 c 2
 364 360 l 1
 521 357 l 2
 607 356 676 353 673 351 c 0
 670 349 602 348 522 349 c 0
 442 350 371 349 365 347 c 0
 353 344 293 263 175 87 c 0
 139 34 110 -4 105 -4 c 0
 100 -4 92 -6 87 -6 c 0
 82 -6 74 -10 69 -14 c 2
 59 -23 l 1
 66 -10 l 1x18
879 119 m 0x98
 878 120 776 121 652 121 c 0x58
 526 121 426 123 424 126 c 0
 422 129 430 131 441 131 c 2
 461 131 l 1x38
 455 138 l 1
 449 146 l 1
 469 150 l 2
 493 153 622 162 716 166 c 0x58
 752 168 816 172 859 175 c 0
 902 178 944 180 951 178 c 0x98
 978 172 980 134 955 121 c 0x58
 946 116 883 115 879 119 c 0x98
438 462 m 0
 438 463 442 467 447 471 c 2
 457 479 l 1
 450 469 l 2
 443 460 438 458 438 462 c 0
478 514 m 0
 483 520 491 524 492 524 c 0
 493 524 489 520 484 514 c 0
 479 508 472 503 471 503 c 0
 470 503 473 508 478 514 c 0
500 541 m 0
 505 547 512 552 513 552 c 0
 514 552 511 547 506 541 c 0
 501 535 495 530 494 530 c 0
 493 530 495 535 500 541 c 0
514 559 m 0
 514 560 518 564 523 568 c 2
 532 575 l 1
 525 566 l 2
 518 557 514 555 514 559 c 0
EndSplineSet
EndChar
